<svg width="768" height="768" viewBox="0 0 768 768" fill="none" xmlns="http://www.w3.org/2000/svg">
  <rect width="768" height="768" fill="transparent"/>
  <g filter="url(#shadowA)">
    <rect x="10" y="10" width="370" height="172" rx="24" fill="#EFE7D1" stroke="#C1121F" stroke-width="3"/>
    <circle cx="71" cy="55" r="8" fill="#C1121F"/>
    <circle cx="62" cy="64" r="4" fill="#C1121F"/>
    <circle cx="80" cy="64" r="4" fill="#C1121F"/>
    <path d="M62 74C67.3333 67.3333 74.6667 67.3333 80 74" stroke="#C1121F" stroke-width="4" stroke-linecap="round"/>
    <text x="93" y="66" fill="#C1121F" font-family="Arial, sans-serif" font-size="27" font-weight="700">Materi Pelatihan</text>
    <circle cx="52" cy="109" r="4.5" fill="#000000"/>
    <circle cx="52" cy="146" r="4.5" fill="#000000"/>
    <text x="71" y="118" fill="#111111" font-family="Arial, sans-serif" font-size="25" font-weight="500">Berbasis Standar Industri</text>
    <text x="71" y="155" fill="#111111" font-family="Arial, sans-serif" font-size="25" font-weight="500">Transparan &amp; Terukur</text>
  </g>

  <g filter="url(#shadowB)">
    <rect x="468" y="185" width="285" height="122" rx="24" fill="#EFE7D1" stroke="#C1121F" stroke-width="3"/>
    <text x="547" y="236" fill="#000000" font-family="Arial, sans-serif" font-size="28" font-weight="800">SIAP UJI</text>
    <text x="505" y="278" fill="#C1121F" font-family="Arial, sans-serif" font-size="28" font-weight="800">KOMPETENSI!</text>
  </g>

  <g filter="url(#shadowC)">
    <rect x="50" y="221" width="252" height="310" rx="20" fill="#EFE7D1" stroke="#C1121F" stroke-width="3"/>
    <text x="84" y="299" fill="#C1121F" font-family="Arial, sans-serif" font-size="31" font-weight="700">Terdaftar</text>
    <text x="80" y="359" fill="#000000" font-family="Arial, sans-serif" font-size="53" font-weight="800">1.000+</text>
    <text x="80" y="411" fill="#000000" font-family="Arial, sans-serif" font-size="53" font-weight="800">ALUMNI</text>
    <text x="80" y="457" fill="#111111" font-family="Arial, sans-serif" font-size="28" font-weight="500">Dari pelajar</text>
    <text x="80" y="490" fill="#111111" font-family="Arial, sans-serif" font-size="28" font-weight="500">hingga</text>
    <text x="80" y="523" fill="#111111" font-family="Arial, sans-serif" font-size="28" font-weight="500">profesional!</text>
  </g>

  <g>
    <path d="M475 752H125V646L200 630L236 545L325 505L421 521L493 610L475 752Z" fill="#DDDDDD"/>
    <path d="M475 752H125V725L235 706L286 617L378 603L475 657V752Z" fill="#F2F2F2"/>
  </g>

  <g>
    <path d="M415 526L502 602L561 590L549 443L492 409L428 432L415 526Z" fill="#EAEAEA"/>
    <path d="M494 417L529 406L613 566L575 577L494 417Z" fill="#D4D4D4"/>
    <path d="M495 424C503 418 518 419 528 426L574 470L544 500L492 447C482 437 485 429 495 424Z" fill="#E3E3E3"/>
    <path d="M245 691C234 592 245 510 282 438C310 383 355 351 406 351C458 351 500 380 524 438C552 505 556 593 531 691H245Z" fill="#6D9FD2"/>
    <path d="M282 430L353 402L391 485L343 701H264C251 594 257 508 282 430Z" fill="#7EAFDF"/>
    <path d="M454 400L524 437C547 509 552 595 533 691H446L410 481L454 400Z" fill="#5D8EC3"/>
    <path d="M355 403C372 392 390 387 407 387C424 387 442 392 457 402L408 483L355 403Z" fill="#5880AE"/>
    <rect x="359" y="423" width="99" height="73" rx="18" fill="#EBC2A4"/>
    <path d="M336 284C336 241 368 207 409 207C449 207 481 240 481 284V330C481 373 449 406 409 406C368 406 336 373 336 330V284Z" fill="#F0C7A7"/>
    <path d="M338 285C343 230 374 197 433 197C477 197 509 225 507 278L505 309C494 286 472 272 442 267C405 261 370 272 338 285Z" fill="#1A1A1A"/>
    <circle cx="383" cy="314" r="25" stroke="#7E8EAE" stroke-width="4"/>
    <circle cx="441" cy="314" r="25" stroke="#7E8EAE" stroke-width="4"/>
    <path d="M408 314H417" stroke="#7E8EAE" stroke-width="4" stroke-linecap="round"/>
    <path d="M387 351C398 359 408 363 419 363C430 363 440 359 449 352" stroke="#B75E4E" stroke-width="5" stroke-linecap="round"/>
    <path d="M557 435C568 437 578 444 583 454L611 514C616 524 612 536 602 540L592 544L557 435Z" fill="#F0C7A7"/>
    <path d="M557 430L584 520L617 511L586 422C580 406 567 399 553 403L525 410L535 443L557 430Z" fill="#5D8EC3"/>
    <path d="M373 474L334 681" stroke="#4A77A6" stroke-width="3"/>
    <path d="M445 474L482 681" stroke="#4A77A6" stroke-width="3"/>
    <path d="M356 472H461" stroke="#4A77A6" stroke-width="3"/>
  </g>

  <defs>
    <filter id="shadowA" x="0" y="0" width="388" height="196" filterUnits="userSpaceOnUse" color-interpolation-filters="sRGB">
      <feFlood flood-opacity="0" result="BackgroundImageFix"/>
      <feColorMatrix in="SourceAlpha" type="matrix" values="0 0 0 0 0 0 0 0 0 0 0 0 0 0 0 0 0 0 127 0" result="hardAlpha"/>
      <feOffset dx="8" dy="11"/>
      <feGaussianBlur stdDeviation="0"/>
      <feComposite in2="hardAlpha" operator="out"/>
      <feColorMatrix type="matrix" values="0 0 0 0 0.317647 0 0 0 0 0.317647 0 0 0 0 0.317647 0 0 0 1 0"/>
      <feBlend mode="normal" in2="BackgroundImageFix" result="effect1_dropShadow_1_1"/>
      <feBlend mode="normal" in="SourceGraphic" in2="effect1_dropShadow_1_1" result="shape"/>
    </filter>
    <filter id="shadowB" x="458" y="175" width="303" height="146" filterUnits="userSpaceOnUse" color-interpolation-filters="sRGB">
      <feFlood flood-opacity="0" result="BackgroundImageFix"/>
      <feColorMatrix in="SourceAlpha" type="matrix" values="0 0 0 0 0 0 0 0 0 0 0 0 0 0 0 0 0 0 127 0" result="hardAlpha"/>
      <feOffset dx="8" dy="11"/>
      <feGaussianBlur stdDeviation="0"/>
      <feComposite in2="hardAlpha" operator="out"/>
      <feColorMatrix type="matrix" values="0 0 0 0 0.317647 0 0 0 0 0.317647 0 0 0 0 0.317647 0 0 0 1 0"/>
      <feBlend mode="normal" in2="BackgroundImageFix" result="effect1_dropShadow_1_1"/>
      <feBlend mode="normal" in="SourceGraphic" in2="effect1_dropShadow_1_1" result="shape"/>
    </filter>
    <filter id="shadowC" x="40" y="211" width="270" height="334" filterUnits="userSpaceOnUse" color-interpolation-filters="sRGB">
      <feFlood flood-opacity="0" result="BackgroundImageFix"/>
      <feColorMatrix in="SourceAlpha" type="matrix" values="0 0 0 0 0 0 0 0 0 0 0 0 0 0 0 0 0 0 127 0" result="hardAlpha"/>
      <feOffset dx="8" dy="11"/>
      <feGaussianBlur stdDeviation="0"/>
      <feComposite in2="hardAlpha" operator="out"/>
      <feColorMatrix type="matrix" values="0 0 0 0 0.317647 0 0 0 0 0.317647 0 0 0 0 0.317647 0 0 0 1 0"/>
      <feBlend mode="normal" in2="BackgroundImageFix" result="effect1_dropShadow_1_1"/>
      <feBlend mode="normal" in="SourceGraphic" in2="effect1_dropShadow_1_1" result="shape"/>
    </filter>
  </defs>
</svg>
