<svg width="256" height="256" viewBox="0 0 256 256" fill="none" xmlns="http://www.w3.org/2000/svg">
  <rect width="256" height="256" rx="56" fill="#C1121F"/>
  <path d="M70 68H127C162.899 68 188 86.0604 188 117.5C188 136.584 177.037 149.865 158.5 156.5C182.88 162.365 196 178.809 196 201C196 234.265 168.299 256 126.5 256H70V68ZM111 142C128.59 142 138 133.694 138 119.5C138 105.581 128.59 98 111 98H100V142H111ZM117 226C136.755 226 147 217.068 147 201.5C147 185.657 136.755 176 117 176H100V226H117Z" fill="white"/>
</svg>
